# xmcd CD database file
#
# Track frame offsets:
#	150
#	24765
#	44352
#	67265
#	83180
#	97160
#
# Disc length: 1465 seconds
#
# Revision: 3
# Processed by: cddbd v1.5.1PL0 Copyright (c) Steve Scherf et al.
# Submitted via: CDex 1.51
#
DISCID=4a05b706
DTITLE=Martin L. Gore - Counterfeit E.P.
DYEAR=1989
DGENRE=Alternative
TTITLE0=Compulsion
TTITLE1=In a Manner of Speaking
TTITLE2=Smile in The Crowd
TTITLE3=Gone
TTITLE4=Never Turn Your Back on Mother Earth
TTITLE5=Motherless Child
EXTD=YEAR: 1989
EXTT0=
EXTT1=
EXTT2=
EXTT3=
EXTT4=
EXTT5=
PLAYORDER=
